<svg viewBox="0 0 88 44" fill="none" xmlns="http://www.w3.org/2000/svg">
<path d="M22.9589 10.1931C25.9524 9.62484 29.1736 10.2956 32.1419 12.4798C35.182 14.7168 37.8063 18.4701 39.1261 23.351C39.2311 23.7393 39.3791 24.1045 39.5635 24.4429C41.514 30.747 45.1775 36.0928 49.9752 39.6069C55.0531 43.3262 61.0683 44.7496 66.9399 43.6252C72.811 42.5008 78.1584 38.9018 82.0197 33.4701C85.8794 28.0407 88 21.1376 88 14.0001C88 11.2386 85.7614 9.00006 83 9.00006C80.2386 9.00006 78 11.2386 78 14.0001C78 19.2165 76.4388 24.0616 73.8693 27.6761C71.3185 31.2642 68.1063 33.2201 65.059 33.8036C62.0683 34.3764 58.8508 33.7124 55.8842 31.5394C52.8458 29.314 50.2182 25.5747 48.889 20.7046C48.7852 20.3245 48.6403 19.9667 48.4603 19.6346C46.5222 13.3174 42.8654 7.95511 38.0687 4.42546C32.9922 0.689893 26.9727 -0.747412 21.094 0.368493C15.2158 1.4843 9.85971 5.08048 5.99144 10.5144C2.12484 15.946 0 22.8554 0 30.0001C0 32.7615 2.23858 35.0001 5 35.0001C7.76142 35.0001 10 32.7615 10 30.0001C10 24.7783 11.5644 19.9291 14.1381 16.3138C16.6929 12.7249 19.9091 10.772 22.9589 10.1931Z" fill="white"/>
</svg>
